<?xml version="1.0" standalone="no"?>
<!DOCTYPE svg PUBLIC "-//W3C//DTD SVG 20010904//EN"
 "http://www.w3.org/TR/2001/REC-SVG-20010904/DTD/svg10.dtd">
<svg version="1.0" xmlns="http://www.w3.org/2000/svg"
 width="500.000000pt" height="500.000000pt" viewBox="0 0 500.000000 500.000000"
 preserveAspectRatio="xMidYMid meet">

<g transform="translate(0.000000,500.000000) scale(0.100000,-0.100000)"
fill="#000000" stroke="none">
<path d="M2520 3083 c-32 -12 -71 -59 -81 -95 -36 -136 130 -235 241 -142 62
53 63 149 0 209 -25 24 -40 29 -87 32 -32 1 -65 0 -73 -4z"/>
<path d="M1340 2410 l0 -670 119 0 120 0 3 303 c3 325 6 346 61 406 55 59 180
80 244 41 68 -41 68 -38 71 -412 l3 -338 119 0 120 0 0 340 c0 213 -4 359 -11
392 -35 163 -130 238 -304 238 -109 0 -163 -20 -235 -86 -32 -30 -60 -54 -64
-54 -3 0 -6 115 -6 255 l0 255 -120 0 -120 0 0 -670z"/>
<path d="M555 3019 c-123 -19 -209 -61 -273 -135 -54 -61 -77 -129 -77 -229 0
-71 4 -89 33 -147 59 -119 135 -165 385 -227 87 -22 173 -49 191 -61 68 -42
84 -155 30 -219 -39 -46 -99 -64 -197 -59 -109 6 -196 45 -272 123 -30 30 -60
55 -67 55 -7 -1 -41 -36 -76 -80 -47 -59 -62 -84 -57 -99 10 -33 116 -122 180
-152 166 -77 388 -89 550 -28 73 27 156 104 192 177 26 52 28 66 28 172 0 106
-2 120 -28 172 -57 116 -151 170 -390 223 -86 19 -170 41 -187 50 -42 22 -70
71 -70 124 0 35 6 49 33 76 40 40 89 55 178 55 89 0 184 -30 236 -75 23 -19
47 -35 55 -34 13 0 128 151 128 168 0 14 -78 75 -127 100 -89 45 -280 69 -398
50z"/>
<path d="M3410 2701 c-54 -17 -110 -52 -144 -92 -20 -24 -36 -46 -36 -51 0 -4
-4 -8 -10 -8 -6 0 -10 32 -10 75 l0 75 -115 0 -115 0 0 -480 0 -480 119 0 120
0 3 308 c3 292 4 309 25 347 44 83 100 115 199 115 37 0 61 -6 85 -23 63 -42
64 -47 67 -414 l3 -333 120 0 121 0 -4 368 c-4 357 -4 369 -27 426 -32 79 -93
140 -162 160 -55 17 -194 20 -239 7z"/>
<path d="M4347 2690 c-115 -41 -199 -114 -247 -215 -37 -80 -50 -146 -50 -263
0 -279 139 -450 393 -484 102 -14 221 0 292 33 59 28 134 95 163 147 l22 40
-79 51 c-44 28 -84 51 -89 51 -5 0 -21 -17 -35 -39 -37 -56 -95 -81 -188 -81
-139 1 -209 59 -233 193 l-7 37 310 0 c368 0 337 -14 328 149 -11 198 -73 303
-217 370 -48 22 -71 26 -180 28 -106 3 -134 0 -183 -17z m225 -170 c57 -16 96
-54 113 -113 28 -94 42 -87 -186 -87 l-201 0 7 38 c23 126 140 197 267 162z"/>
<path d="M2460 2220 l0 -480 120 0 120 0 0 480 0 480 -120 0 -120 0 0 -480z"/>
</g>
</svg>
